<?xml version="1.0" encoding="UTF-8"?>
<!DOCTYPE svg PUBLIC "-//W3C//DTD SVG 1.1//EN" "http://www.w3.org/Graphics/SVG/1.1/DTD/svg11.dtd">
<svg xmlns="http://www.w3.org/2000/svg" version="1.1" width="512px" height="512px" style="shape-rendering:geometricPrecision; text-rendering:geometricPrecision; image-rendering:optimizeQuality; fill-rule:evenodd; clip-rule:evenodd" xmlns:xlink="http://www.w3.org/1999/xlink">
<g><path style="opacity:0.986" fill="#000000" d="M 247.5,31.5 C 290.923,30.465 321.09,49.7983 338,89.5C 350.252,133.084 338.086,167.917 301.5,194C 268.009,211.781 235.342,210.447 203.5,190C 172.389,164.33 161.889,131.83 172,92.5C 185.153,57.1707 210.319,36.8373 247.5,31.5 Z"/></g>
<g><path style="opacity:0.979" fill="#000000" d="M 73.5,95.5 C 105.323,95.1338 125.49,110.134 134,140.5C 137.478,175.996 121.978,197.829 87.5,206C 59.9157,208.383 40.0824,197.216 28,172.5C 18.5883,143.25 26.4217,120.083 51.5,103C 58.578,99.3637 65.9113,96.8637 73.5,95.5 Z"/></g>
<g><path style="opacity:0.979" fill="#000000" d="M 425.5,95.5 C 457.323,95.1338 477.49,110.134 486,140.5C 489.478,175.996 473.978,197.829 439.5,206C 411.916,208.383 392.082,197.216 380,172.5C 370.588,143.25 378.422,120.083 403.5,103C 410.578,99.3637 417.911,96.8637 425.5,95.5 Z"/></g>
<g><path style="opacity:0.991" fill="#000000" d="M 245.5,238.5 C 301.712,232.862 344.878,253.529 375,300.5C 385.816,320.097 391.149,341.097 391,363.5C 391.896,393.187 391.562,422.854 390,452.5C 386.013,467.158 376.513,475.325 361.5,477C 352.526,477.999 343.526,478.665 334.5,479C 272.499,479.24 210.499,478.907 148.5,478C 130.499,472.998 120.999,461.165 120,442.5C 119.333,415.167 119.333,387.833 120,360.5C 123.17,301.016 153.003,262.183 209.5,244C 221.497,241.171 233.497,239.338 245.5,238.5 Z"/></g>
<g><path style="opacity:0.987" fill="#000000" d="M -0.5,424.5 C -0.5,381.5 -0.5,338.5 -0.5,295.5C 7.54309,263.629 27.8764,245.129 60.5,240C 74.8667,239.153 89.2001,239.487 103.5,241C 115.203,243.06 125.537,247.893 134.5,255.5C 105.997,284.871 91.4965,320.204 91,361.5C 90.2,389.857 90.3667,418.19 91.5,446.5C 68.4976,446.667 45.4976,446.5 22.5,446C 10.7345,443.064 3.06786,435.897 -0.5,424.5 Z"/></g>
<g><path style="opacity:0.987" fill="#000000" d="M 511.5,295.5 C 511.5,338.167 511.5,380.833 511.5,423.5C 507.601,435.228 499.601,442.728 487.5,446C 464.927,446.827 442.427,446.66 420,445.5C 420.641,417.554 420.641,389.554 420,361.5C 419.626,320.176 405.126,284.842 376.5,255.5C 385.463,247.893 395.797,243.06 407.5,241C 426.973,238.47 446.306,239.137 465.5,243C 490.331,252.322 505.664,269.822 511.5,295.5 Z"/></g>
</svg>
