<?xml version="1.0" encoding="UTF-8"?>
<!DOCTYPE svg PUBLIC "-//W3C//DTD SVG 1.1//EN" "http://www.w3.org/Graphics/SVG/1.1/DTD/svg11.dtd">
<svg xmlns="http://www.w3.org/2000/svg" version="1.1" width="512px" height="512px" style="shape-rendering:geometricPrecision; text-rendering:geometricPrecision; image-rendering:optimizeQuality; fill-rule:evenodd; clip-rule:evenodd" xmlns:xlink="http://www.w3.org/1999/xlink">
<g><path style="opacity:0.964" fill="#000000" d="M 415.5,31.5 C 448.726,28.3432 469.892,42.6766 479,74.5C 482.425,106.033 469.258,126.866 439.5,137C 406.977,142.111 385.144,129.278 374,98.5C 368.864,64.1829 382.697,41.8496 415.5,31.5 Z M 425.5,63.5 C 441.24,65.7394 448.073,74.7394 446,90.5C 439.591,105.194 429.091,109.028 414.5,102C 404.425,93.0732 402.925,82.9065 410,71.5C 414.361,67.0705 419.528,64.4038 425.5,63.5 Z"/></g>
<g><path style="opacity:0.971" fill="#000000" d="M 182.5,47.5 C 230.168,47.3333 277.834,47.5 325.5,48C 334.482,52.4731 337.649,59.6397 335,69.5C 333.167,74 330,77.1667 325.5,79C 277.829,79.3476 230.162,80.0142 182.5,81C 164.68,81.307 147.347,84.307 130.5,90C 101.406,103.998 85.5729,127.165 83,159.5C 82.0682,167.477 81.4015,175.477 81,183.5C 80.8042,207.517 80.3042,231.517 79.5,255.5C 80.3042,279.483 80.8042,303.483 81,327.5C 81.3757,343.797 83.709,359.797 88,375.5C 103.242,410.395 130.075,428.228 168.5,429C 221.815,431.766 275.149,432.099 328.5,430C 341.973,429.429 355.306,427.762 368.5,425C 404.488,413.67 424.321,389.17 428,351.5C 428.932,343.523 429.598,335.523 430,327.5C 430.667,280.167 431.333,232.833 432,185.5C 436.473,176.518 443.64,173.351 453.5,176C 458,177.833 461.167,181 463,185.5C 463.667,233.167 463.667,280.833 463,328.5C 461.501,416.666 416.668,461.499 328.5,463C 279.833,463.667 231.167,463.667 182.5,463C 94.3324,461.499 49.499,416.666 48,328.5C 47.3333,279.833 47.3333,231.167 48,182.5C 49.6743,94.3259 94.5076,49.3259 182.5,47.5 Z"/></g>
<g><path style="opacity:0.96" fill="#000000" d="M 356.5,178.5 C 372.457,176.625 379.624,183.625 378,199.5C 365.845,225.143 353.178,250.477 340,275.5C 317.66,299.566 291.827,304.066 262.5,289C 251.019,281.173 242.852,270.673 238,257.5C 228.029,245.558 216.196,243.392 202.5,251C 200.667,252.833 198.833,254.667 197,256.5C 185.395,279.377 174.061,302.377 163,325.5C 156.863,332.553 149.363,334.386 140.5,331C 132.595,325.269 130.428,317.769 134,308.5C 145.272,286.29 156.272,263.956 167,241.5C 183.82,217.185 206.653,208.685 235.5,216C 253.974,222.474 266.474,234.974 273,253.5C 282.971,265.442 294.804,267.608 308.5,260C 310.333,258.167 312.167,256.333 314,254.5C 325.605,231.623 336.939,208.623 348,185.5C 350.441,182.546 353.275,180.213 356.5,178.5 Z"/></g>
</svg>
