<?xml version="1.0" encoding="UTF-8"?>
<!DOCTYPE svg PUBLIC "-//W3C//DTD SVG 1.1//EN" "http://www.w3.org/Graphics/SVG/1.1/DTD/svg11.dtd">
<svg xmlns="http://www.w3.org/2000/svg" version="1.1" width="512px" height="512px" style="shape-rendering:geometricPrecision; text-rendering:geometricPrecision; image-rendering:optimizeQuality; fill-rule:evenodd; clip-rule:evenodd" xmlns:xlink="http://www.w3.org/1999/xlink">
<g><path style="opacity:0.965" fill="#000000" d="M 95.5,60.5 C 132.835,60.3333 170.168,60.5 207.5,61C 226.546,64.3795 238.046,75.5461 242,94.5C 242.667,132.5 242.667,170.5 242,208.5C 238.167,227 227,238.167 208.5,242C 170.5,242.667 132.5,242.667 94.5,242C 76,238.167 64.8333,227 61,208.5C 60.3333,170.833 60.3333,133.167 61,95.5C 64.6798,75.9876 76.1798,64.3209 95.5,60.5 Z M 100.5,81.5 C 134.502,81.3333 168.502,81.5 202.5,82C 212.876,83.376 219.043,89.2093 221,99.5C 221.667,134.167 221.667,168.833 221,203.5C 219.167,213.333 213.333,219.167 203.5,221C 168.833,221.667 134.167,221.667 99.5,221C 89.2093,219.043 83.376,212.876 82,202.5C 81.3333,168.5 81.3333,134.5 82,100.5C 83.6793,89.6554 89.8459,83.3221 100.5,81.5 Z"/></g>
<g><path style="opacity:0.965" fill="#000000" d="M 303.5,60.5 C 340.835,60.3333 378.168,60.5 415.5,61C 435,64.5 446.5,76 450,95.5C 450.667,132.833 450.667,170.167 450,207.5C 446.621,226.546 435.454,238.046 416.5,242C 378.5,242.667 340.5,242.667 302.5,242C 284,238.167 272.833,227 269,208.5C 268.333,170.5 268.333,132.5 269,94.5C 273.119,75.547 284.619,64.2136 303.5,60.5 Z M 308.5,81.5 C 342.502,81.3333 376.502,81.5 410.5,82C 421.333,83.5 427.5,89.6667 429,100.5C 429.667,134.5 429.667,168.5 429,202.5C 427.624,212.876 421.791,219.043 411.5,221C 376.833,221.667 342.167,221.667 307.5,221C 297.667,219.167 291.833,213.333 290,203.5C 289.333,168.833 289.333,134.167 290,99.5C 292.133,89.1987 298.299,83.1987 308.5,81.5 Z"/></g>
<g><path style="opacity:0.965" fill="#000000" d="M 94.5,268.5 C 132.501,268.333 170.501,268.5 208.5,269C 227,272.833 238.167,284 242,302.5C 242.667,340.5 242.667,378.5 242,416.5C 238.046,435.454 226.546,446.621 207.5,450C 170.167,450.667 132.833,450.667 95.5,450C 76,446.5 64.5,435 61,415.5C 60.3333,377.833 60.3333,340.167 61,302.5C 65.0268,283.974 76.1935,272.641 94.5,268.5 Z M 99.5,289.5 C 134.168,289.333 168.835,289.5 203.5,290C 213.333,291.833 219.167,297.667 221,307.5C 221.667,342.167 221.667,376.833 221,411.5C 219.043,421.791 212.876,427.624 202.5,429C 168.5,429.667 134.5,429.667 100.5,429C 89.6667,427.5 83.5,421.333 82,410.5C 81.3333,376.5 81.3333,342.5 82,308.5C 83.5603,298.11 89.3936,291.777 99.5,289.5 Z"/></g>
<g><path style="opacity:0.931" fill="#000000" d="M 354.5,290.5 C 362.307,288.42 367.474,291.087 370,298.5C 370.5,315.163 370.667,331.83 370.5,348.5C 387.17,348.333 403.837,348.5 420.5,349C 428.494,352.025 430.661,357.525 427,365.5C 425.238,368.268 422.738,369.768 419.5,370C 403.17,370.5 386.837,370.667 370.5,370.5C 370.667,387.17 370.5,403.837 370,420.5C 366.816,428.337 361.316,430.504 353.5,427C 351.19,425.363 349.69,423.196 349,420.5C 348.5,403.837 348.333,387.17 348.5,370.5C 331.83,370.667 315.163,370.5 298.5,370C 290.926,367.466 288.426,362.299 291,354.5C 292.48,351.337 294.98,349.504 298.5,349C 315.163,348.5 331.83,348.333 348.5,348.5C 348.333,331.83 348.5,315.163 349,298.5C 349.625,294.891 351.458,292.224 354.5,290.5 Z"/></g>
</svg>
