<?xml version="1.0" encoding="UTF-8"?>
<!DOCTYPE svg PUBLIC "-//W3C//DTD SVG 1.1//EN" "http://www.w3.org/Graphics/SVG/1.1/DTD/svg11.dtd">
<svg xmlns="http://www.w3.org/2000/svg" version="1.1" width="512px" height="512px" style="shape-rendering:geometricPrecision; text-rendering:geometricPrecision; image-rendering:optimizeQuality; fill-rule:evenodd; clip-rule:evenodd" xmlns:xlink="http://www.w3.org/1999/xlink">
<g><path style="opacity:0.964" fill="#000000" d="M 38.5,-0.5 C 42.5,-0.5 46.5,-0.5 50.5,-0.5C 54.4788,1.31481 57.3122,4.31481 59,8.5C 59.3333,16.8333 59.6667,25.1667 60,33.5C 71.1321,37.6308 79.4654,44.9642 85,55.5C 86.7602,72.7417 79.2602,79.2417 62.5,75C 59.3832,72.4581 56.7166,69.4581 54.5,66C 44.6987,59.9202 36.8654,61.7536 31,71.5C 28.862,80.0525 31.6953,86.2192 39.5,90C 74.4302,92.2556 90.9302,110.756 89,145.5C 85.4049,162.03 75.7383,173.363 60,179.5C 59.9021,187.577 59.2355,195.577 58,203.5C 51.7052,210.914 44.2052,212.414 35.5,208C 32.8647,206.039 31.0314,203.539 30,200.5C 29.6667,193.5 29.3333,186.5 29,179.5C 17.8679,175.369 9.53459,168.036 4,157.5C 2.23983,140.258 9.73983,133.758 26.5,138C 29.6168,140.542 32.2834,143.542 34.5,147C 44.3013,153.08 52.1346,151.246 58,141.5C 60.138,132.947 57.3047,126.781 49.5,123C 24.1092,122.404 7.44256,110.237 -0.5,86.5C -0.5,80.1667 -0.5,73.8333 -0.5,67.5C 3.49876,51.2073 13.3321,39.8739 29,33.5C 29.3333,25.1667 29.6667,16.8333 30,8.5C 31.6878,4.31481 34.5212,1.31481 38.5,-0.5 Z"/></g>
<g><path style="opacity:0.994" fill="#000000" d="M 416.5,-0.5 C 419.833,-0.5 423.167,-0.5 426.5,-0.5C 431.066,1.56236 434.566,4.89569 437,9.5C 461.728,50.3586 486.561,91.0252 511.5,131.5C 511.5,134.833 511.5,138.167 511.5,141.5C 509.683,146.147 506.35,149.314 501.5,151C 494.842,151.5 488.175,151.666 481.5,151.5C 481.5,261.5 481.5,371.5 481.5,481.5C 488.508,481.334 495.508,481.5 502.5,482C 506.685,483.688 509.685,486.521 511.5,490.5C 511.5,494.5 511.5,498.5 511.5,502.5C 510.196,503.987 509.03,505.654 508,507.5C 505.985,508.697 504.151,510.03 502.5,511.5C 337.833,511.5 173.167,511.5 8.5,511.5C 7.01307,510.196 5.3464,509.03 3.5,508C 2.30342,505.985 0.970083,504.151 -0.5,502.5C -0.5,498.5 -0.5,494.5 -0.5,490.5C 1.31481,486.521 4.31481,483.688 8.5,482C 26.1635,481.5 43.8302,481.333 61.5,481.5C 61.3333,424.499 61.5,367.499 62,310.5C 63.5,306.333 66.3333,303.5 70.5,302C 104.5,301.333 138.5,301.333 172.5,302C 176.667,303.5 179.5,306.333 181,310.5C 181.5,367.499 181.667,424.499 181.5,481.5C 191.5,481.5 201.5,481.5 211.5,481.5C 211.333,394.499 211.5,307.499 212,220.5C 213.5,216.333 216.333,213.5 220.5,212C 254.5,211.333 288.5,211.333 322.5,212C 326.667,213.5 329.5,216.333 331,220.5C 331.5,307.499 331.667,394.499 331.5,481.5C 341.5,481.5 351.5,481.5 361.5,481.5C 361.5,371.5 361.5,261.5 361.5,151.5C 353.747,151.896 346.08,151.396 338.5,150C 331.496,144.297 329.663,137.131 333,128.5C 358.916,86.332 385.083,44.332 411.5,2.5C 413.145,1.30374 414.811,0.303736 416.5,-0.5 Z M 420.5,45.5 C 421.496,45.4142 422.329,45.7476 423,46.5C 438.041,71.4167 453.208,96.2501 468.5,121C 460.76,120.449 455.26,123.615 452,130.5C 451.5,247.5 451.333,364.5 451.5,481.5C 431.5,481.5 411.5,481.5 391.5,481.5C 391.667,364.5 391.5,247.5 391,130.5C 387.68,123.749 382.18,120.416 374.5,120.5C 390.095,95.6391 405.429,70.6391 420.5,45.5 Z M 241.5,241.5 C 261.5,241.5 281.5,241.5 301.5,241.5C 301.5,321.5 301.5,401.5 301.5,481.5C 281.5,481.5 261.5,481.5 241.5,481.5C 241.5,401.5 241.5,321.5 241.5,241.5 Z M 91.5,331.5 C 111.5,331.5 131.5,331.5 151.5,331.5C 151.5,381.5 151.5,431.5 151.5,481.5C 131.5,481.5 111.5,481.5 91.5,481.5C 91.5,431.5 91.5,381.5 91.5,331.5 Z"/></g>
</svg>
