<?xml version="1.0" encoding="UTF-8"?>
<!DOCTYPE svg PUBLIC "-//W3C//DTD SVG 1.1//EN" "http://www.w3.org/Graphics/SVG/1.1/DTD/svg11.dtd">
<svg xmlns="http://www.w3.org/2000/svg" version="1.1" width="512px" height="512px" style="shape-rendering:geometricPrecision; text-rendering:geometricPrecision; image-rendering:optimizeQuality; fill-rule:evenodd; clip-rule:evenodd" xmlns:xlink="http://www.w3.org/1999/xlink">
<g><path style="opacity:0.948" fill="#000000" d="M 389.5,-0.5 C 413.167,-0.5 436.833,-0.5 460.5,-0.5C 463.2,1.04602 465.033,3.37935 466,6.5C 466.667,27.8333 466.667,49.1667 466,70.5C 463.27,77.053 458.437,79.2196 451.5,77C 448.619,75.7494 446.786,73.5827 446,70.5C 445.667,58.8333 445.333,47.1667 445,35.5C 409.472,71.3613 373.639,106.861 337.5,142C 333.705,142.837 330.039,142.504 326.5,141C 314.167,128.667 301.833,116.333 289.5,104C 288.833,103.333 288.167,103.333 287.5,104C 229.833,161.667 172.167,219.333 114.5,277C 103.67,279.835 98.503,275.669 99,264.5C 99.6667,263.167 100.333,261.833 101,260.5C 161.167,200.333 221.333,140.167 281.5,80C 286.167,76.6667 290.833,76.6667 295.5,80C 308,92.5 320.5,105 333,117.5C 365.5,85 398,52.5 430.5,20C 416.833,19.6667 403.167,19.3333 389.5,19C 384.725,15.3449 383.225,10.5116 385,4.5C 386.366,2.63834 387.866,0.971672 389.5,-0.5 Z"/></g>
<g><path style="opacity:0.966" fill="#000000" d="M 492.5,511.5 C 334.5,511.5 176.5,511.5 18.5,511.5C 10.5808,504.994 10.5808,498.494 18.5,492C 27.4938,491.5 36.4938,491.334 45.5,491.5C 45.3334,460.498 45.5,429.498 46,398.5C 48.2954,383.871 56.7954,375.705 71.5,374C 90.8714,373.078 110.205,373.411 129.5,375C 139.765,378.264 146.265,385.098 149,395.5C 149.5,427.498 149.667,459.498 149.5,491.5C 167.833,491.5 186.167,491.5 204.5,491.5C 204.333,431.166 204.5,370.832 205,310.5C 209.072,298.089 217.572,291.256 230.5,290C 247.5,289.333 264.5,289.333 281.5,290C 292.923,290.769 301.089,296.269 306,306.5C 307.485,368.121 307.985,429.788 307.5,491.5C 325.833,491.5 344.167,491.5 362.5,491.5C 362.333,384.166 362.5,276.833 363,169.5C 365.5,156.333 373.333,148.5 386.5,146C 405.167,145.333 423.833,145.333 442.5,146C 455.215,148.381 463.048,155.881 466,168.5C 466.5,276.166 466.667,383.833 466.5,491.5C 475.173,491.334 483.84,491.5 492.5,492C 500.419,498.494 500.419,504.994 492.5,511.5 Z M 388.5,166.5 C 405.837,166.333 423.17,166.5 440.5,167C 442.286,167.785 443.786,168.951 445,170.5C 445.5,277.499 445.667,384.499 445.5,491.5C 424.833,491.5 404.167,491.5 383.5,491.5C 383.333,384.833 383.5,278.166 384,171.5C 385.025,169.313 386.525,167.646 388.5,166.5 Z M 231.5,310.5 C 247.837,310.333 264.17,310.5 280.5,311C 284.333,311.5 286.5,313.667 287,317.5C 287.5,375.499 287.667,433.499 287.5,491.5C 266.833,491.5 246.167,491.5 225.5,491.5C 225.333,432.499 225.5,373.499 226,314.5C 227.5,312.531 229.333,311.198 231.5,310.5 Z M 72.5,394.5 C 89.17,394.333 105.837,394.5 122.5,395C 124.329,395.273 125.829,396.107 127,397.5C 128.485,428.746 128.985,460.079 128.5,491.5C 107.833,491.5 87.1667,491.5 66.5,491.5C 66.3334,461.165 66.5,430.832 67,400.5C 67.3333,399.5 67.6667,398.5 68,397.5C 69.6516,396.601 71.1516,395.601 72.5,394.5 Z"/></g>
<g><path style="opacity:0.895" fill="#000000" d="M 71.5,292.5 C 81.9898,291.489 86.4898,296.155 85,306.5C 80.9366,313.224 75.4366,314.724 68.5,311C 62.7017,303.7 63.7017,297.533 71.5,292.5 Z"/></g>
</svg>
