<?xml version="1.0" encoding="UTF-8"?>
<!DOCTYPE svg PUBLIC "-//W3C//DTD SVG 1.1//EN" "http://www.w3.org/Graphics/SVG/1.1/DTD/svg11.dtd">
<svg xmlns="http://www.w3.org/2000/svg" version="1.1" width="512px" height="512px" style="shape-rendering:geometricPrecision; text-rendering:geometricPrecision; image-rendering:optimizeQuality; fill-rule:evenodd; clip-rule:evenodd" xmlns:xlink="http://www.w3.org/1999/xlink">
<g><path style="opacity:0.933" fill="#000000" d="M 214.5,-0.5 C 220.833,-0.5 227.167,-0.5 233.5,-0.5C 252.422,4.42161 264.422,16.4216 269.5,35.5C 279.149,36.3321 288.816,36.8321 298.5,37C 310.879,41.912 315.879,51.0786 313.5,64.5C 330.17,64.3334 346.837,64.5001 363.5,65C 382.935,69.4362 393.435,81.6028 395,101.5C 395.333,134.167 395.667,166.833 396,199.5C 405.125,188.039 414.625,176.873 424.5,166C 441.383,156.231 456.883,158.064 471,171.5C 478.062,180.682 480.395,191.016 478,202.5C 476.721,207.725 474.388,212.391 471,216.5C 445.622,246.876 420.622,277.543 396,308.5C 395.667,347.833 395.333,387.167 395,426.5C 393.098,447.735 381.598,459.902 360.5,463C 315.441,463.984 270.441,463.651 225.5,462C 220.06,456.558 220.393,451.558 226.5,447C 270.833,446.667 315.167,446.333 359.5,446C 369.667,443.833 375.833,437.667 378,427.5C 378.667,395.167 378.667,362.833 378,330.5C 360.287,352.758 342.453,374.925 324.5,397C 307.323,404.059 289.99,410.726 272.5,417C 268.209,417.795 265.042,416.295 263,412.5C 264.263,392.254 267.263,372.254 272,352.5C 307.573,309.016 342.906,265.35 378,221.5C 378.972,179.462 378.639,137.462 377,95.5C 374.192,88.3385 369.026,83.8385 361.5,82C 345.503,81.5001 329.503,81.3334 313.5,81.5C 315.879,94.9214 310.879,104.088 298.5,109C 249.167,109.667 199.833,109.667 150.5,109C 143,106.833 138.167,102 136,94.5C 135.501,90.1794 135.334,85.8461 135.5,81.5C 118.111,81.0565 100.777,81.5565 83.5,83C 76.7438,86.0885 72.5771,91.2552 71,98.5C 70.9938,171.248 70.3271,243.915 69,316.5C 66.0052,319.265 62.5052,320.098 58.5,319C 56.1853,317.891 54.6853,316.057 54,313.5C 53.3333,241.5 53.3333,169.5 54,97.5C 56.6579,81.8394 65.4912,71.3394 80.5,66C 98.7863,64.5675 117.12,64.0675 135.5,64.5C 133.684,54.7824 136.351,46.6157 143.5,40C 145.717,38.7246 148.051,37.7246 150.5,37C 160.161,36.5002 169.828,36.3335 179.5,36.5C 183.985,17.3492 195.651,5.0159 214.5,-0.5 Z M 222.5,15.5 C 242.707,17.2078 253.207,28.2078 254,48.5C 254.465,49.9308 255.299,51.0975 256.5,52C 269.097,53.2751 281.764,53.9418 294.5,54C 295,54.5 295.5,55 296,55.5C 296.667,67.1667 296.667,78.8333 296,90.5C 295.5,91 295,91.5 294.5,92C 247.263,92.8302 200.096,92.6636 153,91.5C 152.333,79.1667 152.333,66.8333 153,54.5C 165.091,53.6772 177.258,53.1772 189.5,53C 192.333,52.1667 194.167,50.3333 195,47.5C 195.874,29.4734 205.041,18.8067 222.5,15.5 Z M 106.5,156.5 C 117.167,156.5 127.833,156.5 138.5,156.5C 138.5,167.167 138.5,177.833 138.5,188.5C 127.833,188.5 117.167,188.5 106.5,188.5C 106.5,177.833 106.5,167.167 106.5,156.5 Z M 441.5,176.5 C 456.424,177.011 462.924,184.677 461,199.5C 457.077,205.924 452.577,211.924 447.5,217.5C 438.552,210.546 429.885,203.38 421.5,196C 425.441,190.388 429.774,185.055 434.5,180C 436.925,178.787 439.259,177.621 441.5,176.5 Z M 409.5,209.5 C 418.337,216.833 427.337,224 436.5,231C 395.88,281.075 355.38,331.242 315,381.5C 304.261,386.7 293.261,391.367 282,395.5C 282.997,385.841 284.33,376.175 286,366.5C 286.133,363.475 287.133,360.808 289,358.5C 329.38,308.959 369.546,259.292 409.5,209.5 Z M 106.5,250.5 C 117.167,250.5 127.833,250.5 138.5,250.5C 138.5,260.833 138.5,271.167 138.5,281.5C 127.833,281.5 117.167,281.5 106.5,281.5C 106.5,271.167 106.5,260.833 106.5,250.5 Z"/></g>
<g><path style="opacity:0.925" fill="#000000" d="M 221.5,29.5 C 236.992,30.8261 242.159,38.8261 237,53.5C 229.543,60.6627 221.543,61.3294 213,55.5C 206.08,43.4295 208.913,34.7628 221.5,29.5 Z"/></g>
<g><path style="opacity:0.958" fill="#000000" d="M 94.5,140.5 C 113.17,140.333 131.836,140.5 150.5,141C 151.931,141.465 153.097,142.299 154,143.5C 155.627,161.768 155.96,180.101 155,198.5C 154.654,200.848 153.487,202.681 151.5,204C 133.257,205.64 114.924,205.973 96.5,205C 94.6711,204.727 93.1711,203.893 92,202.5C 90.3588,183.257 90.0255,163.923 91,144.5C 91.6897,142.65 92.8564,141.316 94.5,140.5 Z M 106.5,156.5 C 106.5,167.167 106.5,177.833 106.5,188.5C 117.167,188.5 127.833,188.5 138.5,188.5C 138.5,177.833 138.5,167.167 138.5,156.5C 127.833,156.5 117.167,156.5 106.5,156.5 Z"/></g>
<g><path style="opacity:0.986" fill="#000000" d="M 178.5,140.5 C 231.501,140.333 284.501,140.5 337.5,141C 342.833,146 342.833,151 337.5,156C 284.5,156.667 231.5,156.667 178.5,156C 173.221,150.836 173.221,145.669 178.5,140.5 Z"/></g>
<g><path style="opacity:0.925" fill="#000000" d="M 179.5,188.5 C 206.835,188.333 234.169,188.5 261.5,189C 266.789,192.51 267.789,197.01 264.5,202.5C 263.335,203.584 262.002,204.417 260.5,205C 233.833,205.667 207.167,205.667 180.5,205C 174.635,202.006 173.135,197.506 176,191.5C 177.145,190.364 178.312,189.364 179.5,188.5 Z"/></g>
<g><path style="opacity:0.948" fill="#000000" d="M 95.5,233.5 C 113.836,233.333 132.17,233.5 150.5,234C 152.726,235.227 154.226,237.061 155,239.5C 155.667,257.167 155.667,274.833 155,292.5C 154.215,294.286 153.049,295.786 151.5,297C 132.924,298.64 114.257,298.974 95.5,298C 93.714,297.215 92.214,296.049 91,294.5C 90.3333,275.5 90.3333,256.5 91,237.5C 92.3968,235.93 93.8968,234.596 95.5,233.5 Z M 106.5,250.5 C 106.5,260.833 106.5,271.167 106.5,281.5C 117.167,281.5 127.833,281.5 138.5,281.5C 138.5,271.167 138.5,260.833 138.5,250.5C 127.833,250.5 117.167,250.5 106.5,250.5 Z"/></g>
<g><path style="opacity:0.931" fill="#000000" d="M 179.5,233.5 C 231.834,233.333 284.168,233.5 336.5,234C 341.609,237.366 342.776,241.866 340,247.5C 338.829,248.893 337.329,249.727 335.5,250C 283.833,250.667 232.167,250.667 180.5,250C 174.635,247.006 173.135,242.506 176,236.5C 177.145,235.364 178.312,234.364 179.5,233.5 Z"/></g>
<g><path style="opacity:0.92" fill="#000000" d="M 180.5,281.5 C 207.169,281.333 233.835,281.5 260.5,282C 264.666,282.985 266.666,285.652 266.5,290C 266.6,293.804 264.934,296.471 261.5,298C 234.167,298.667 206.833,298.667 179.5,298C 174.173,294.564 173.173,290.064 176.5,284.5C 177.901,283.479 179.235,282.479 180.5,281.5 Z"/></g>
<g><path style="opacity:0.934" fill="#000000" d="M 125.5,511.5 C 122.833,511.5 120.167,511.5 117.5,511.5C 89.6475,495.319 61.8142,478.986 34,462.5C 32.3474,428.252 32.0141,393.918 33,359.5C 35.3834,356.727 38.2167,354.561 41.5,353C 65.3301,339.586 88.9968,325.919 112.5,312C 116.807,308.469 121.474,307.803 126.5,310C 153.336,325.919 180.336,341.586 207.5,357C 208.701,357.903 209.535,359.069 210,360.5C 210.667,393.5 210.667,426.5 210,459.5C 209.5,460.5 209,461.5 208.5,462.5C 180.935,479.112 153.268,495.445 125.5,511.5 Z M 119.5,327.5 C 141.716,338.61 163.383,350.777 184.5,364C 163.833,376 143.167,388 122.5,400C 121.092,400.315 119.759,399.982 118.5,399C 98.5,387.333 78.5,375.667 58.5,364C 78.8967,351.807 99.2301,339.641 119.5,327.5 Z M 192.5,378.5 C 193.829,403.003 193.829,427.67 192.5,452.5C 171.748,464.626 150.915,476.626 130,488.5C 129.333,464.167 129.333,439.833 130,415.5C 150.979,403.266 171.812,390.933 192.5,378.5 Z M 49.5,379.5 C 70.1325,391.111 90.7992,402.777 111.5,414.5C 112.666,439.16 112.833,463.827 112,488.5C 91.4971,476.248 70.8304,464.248 50,452.5C 49.5,428.169 49.3334,403.836 49.5,379.5 Z"/></g>
</svg>
