<?xml version="1.0" encoding="UTF-8"?>
<!DOCTYPE svg PUBLIC "-//W3C//DTD SVG 1.1//EN" "http://www.w3.org/Graphics/SVG/1.1/DTD/svg11.dtd">
<svg xmlns="http://www.w3.org/2000/svg" version="1.1" width="512px" height="512px" style="shape-rendering:geometricPrecision; text-rendering:geometricPrecision; image-rendering:optimizeQuality; fill-rule:evenodd; clip-rule:evenodd" xmlns:xlink="http://www.w3.org/1999/xlink">
<g><path style="opacity:0.981" fill="#000000" d="M 91.5,7.5 C 120.835,7.33335 150.169,7.50002 179.5,8C 180.416,8.37424 181.25,8.87424 182,9.5C 183.485,40.7459 183.985,72.0792 183.5,103.5C 187.514,103.334 191.514,103.501 195.5,104C 197.333,104.5 198.5,105.667 199,107.5C 199.167,127.842 199.667,148.175 200.5,168.5C 246.225,198.284 267.225,240.617 263.5,295.5C 276.833,295.5 290.167,295.5 303.5,295.5C 303.333,280.83 303.5,266.163 304,251.5C 304.374,250.584 304.874,249.75 305.5,249C 323.412,247.846 341.412,247.346 359.5,247.5C 377.588,247.346 395.588,247.846 413.5,249C 414.126,249.75 414.626,250.584 415,251.5C 415.5,266.163 415.667,280.83 415.5,295.5C 439.169,295.333 462.836,295.5 486.5,296C 493.519,298.351 498.686,302.851 502,309.5C 503.655,368.442 503.988,427.442 503,486.5C 500.167,494.667 494.667,500.167 486.5,503C 337.167,503.667 187.833,503.667 38.5,503C 22.3333,498.833 12.1667,488.667 8,472.5C 7.02246,400.473 7.35579,328.473 9,256.5C 16.9375,218.261 37.4375,188.927 70.5,168.5C 71.3331,148.175 71.8331,127.842 72,107.5C 72.5,105.667 73.6667,104.5 75.5,104C 79.4862,103.501 83.4862,103.334 87.5,103.5C 87.3334,72.8315 87.5,42.1649 88,11.5C 88.6897,9.64977 89.8564,8.31643 91.5,7.5 Z M 103.5,23.5 C 124.833,23.5 146.167,23.5 167.5,23.5C 167.5,28.8333 167.5,34.1667 167.5,39.5C 153.792,36.7792 143.625,41.4458 137,53.5C 132.075,69.4774 137.242,80.644 152.5,87C 157.489,87.4993 162.489,87.6659 167.5,87.5C 167.5,92.8333 167.5,98.1667 167.5,103.5C 146.167,103.5 124.833,103.5 103.5,103.5C 103.5,76.8333 103.5,50.1667 103.5,23.5 Z M 159.5,55.5 C 162.167,55.5 164.833,55.5 167.5,55.5C 167.5,60.8333 167.5,66.1667 167.5,71.5C 162.636,71.9989 158.136,70.9989 154,68.5C 150.953,61.9387 152.787,57.6054 159.5,55.5 Z M 87.5,119.5 C 119.5,119.5 151.5,119.5 183.5,119.5C 183.667,133.171 183.5,146.837 183,160.5C 167.895,153.846 152.062,150.846 135.5,151.5C 118.938,150.846 103.105,153.846 88,160.5C 87.5001,146.837 87.3334,133.171 87.5,119.5 Z M 134.5,167.5 C 187.493,170.68 223.326,197.013 242,246.5C 246.006,262.573 247.839,278.906 247.5,295.5C 232.248,292.705 221.748,298.372 216,312.5C 215.833,326.845 215.333,341.178 214.5,355.5C 198.335,347.832 184.669,350.998 173.5,365C 169.5,367 165.5,367 161.5,365C 151.153,351.996 138.153,348.33 122.5,354C 117.58,356.916 113.247,360.582 109.5,365C 105.5,367 101.5,367 97.5,365C 86.3313,350.998 72.6646,347.832 56.5,355.5C 55.5004,335.511 55.167,315.511 55.5,295.5C 103.5,295.5 151.5,295.5 199.5,295.5C 199.5,290.167 199.5,284.833 199.5,279.5C 147.499,279.333 95.4989,279.5 43.5,280C 42.5838,280.374 41.7504,280.874 41,281.5C 39.3416,339.084 39.0083,396.751 40,454.5C 42.8333,462.667 48.3333,468.167 56.5,471C 109.499,471.5 162.499,471.667 215.5,471.5C 215.195,476.762 215.529,481.928 216.5,487C 160.167,487.667 103.833,487.667 47.5,487C 36.2046,486.037 28.7046,480.204 25,469.5C 23.3552,406.198 23.0219,342.864 24,279.5C 26.8001,229.702 50.9668,194.869 96.5,175C 108.954,170.651 121.621,168.151 134.5,167.5 Z M 319.5,263.5 C 346.167,263.5 372.833,263.5 399.5,263.5C 399.5,274.167 399.5,284.833 399.5,295.5C 372.833,295.5 346.167,295.5 319.5,295.5C 319.5,284.833 319.5,274.167 319.5,263.5 Z M 239.5,311.5 C 319.501,311.333 399.501,311.5 479.5,312C 484,312.5 486.5,315 487,319.5C 487.667,372.833 487.667,426.167 487,479.5C 486.5,484 484,486.5 479.5,487C 399.5,487.667 319.5,487.667 239.5,487C 235,486.5 232.5,484 232,479.5C 231.333,426.167 231.333,372.833 232,319.5C 232.68,314.989 235.18,312.323 239.5,311.5 Z M 263.5,359.5 C 327.5,359.5 391.5,359.5 455.5,359.5C 455.5,391.5 455.5,423.5 455.5,455.5C 391.5,455.5 327.5,455.5 263.5,455.5C 263.5,423.5 263.5,391.5 263.5,359.5 Z M 67.5,368.5 C 70.9783,368.184 74.3117,368.684 77.5,370C 87.8466,383.004 100.847,386.67 116.5,381C 121.789,377.38 126.789,373.38 131.5,369C 134.167,368.333 136.833,368.333 139.5,369C 143.833,372.667 148.167,376.333 152.5,380C 162.5,384.667 172.5,384.667 182.5,380C 186.833,376.333 191.167,372.667 195.5,369C 198.964,368.183 202.298,368.517 205.5,370C 208.667,373.167 211.833,376.333 215,379.5C 215.5,404.831 215.667,430.164 215.5,455.5C 164.832,455.667 114.166,455.5 63.5,455C 59,454.5 56.5,452 56,447.5C 55.3333,424.833 55.3333,402.167 56,379.5C 59.7288,375.602 63.5621,371.935 67.5,368.5 Z M 351.5,399.5 C 356.833,399.5 362.167,399.5 367.5,399.5C 367.5,404.833 367.5,410.167 367.5,415.5C 362.167,415.5 356.833,415.5 351.5,415.5C 351.5,410.167 351.5,404.833 351.5,399.5 Z"/></g>
<g><path style="opacity:0.937" fill="#000000" d="M 459.5,7.5 C 462.978,7.18424 466.312,7.68424 469.5,9C 474.833,25 485.5,35.6667 501.5,41C 503.942,45.0524 504.109,49.2191 502,53.5C 486,58.8333 475.333,69.5 470,85.5C 465.948,87.9423 461.781,88.109 457.5,86C 452.167,70 441.5,59.3333 425.5,54C 422.833,49.6667 422.833,45.3333 425.5,41C 441.333,35.8333 451.833,25.3333 457,9.5C 457.995,8.93406 458.828,8.26739 459.5,7.5 Z M 462.5,34.5 C 467.1,38.7616 471.767,43.095 476.5,47.5C 471.833,51.5 467.5,55.8333 463.5,60.5C 459.5,55.8333 455.167,51.5 450.5,47.5C 455.252,43.7528 459.252,39.4194 462.5,34.5 Z"/></g>
<g><path style="opacity:0.887" fill="#000000" d="M 232.5,9.5 C 237.419,12.7483 241.753,16.7483 245.5,21.5C 237.833,29.8333 229.833,37.8333 221.5,45.5C 217.167,41.8333 213.167,37.8333 209.5,33.5C 217.188,25.4794 224.855,17.4794 232.5,9.5 Z"/></g>
<g><path style="opacity:1" fill="#000000" d="M 223.5,55.5 C 234.167,55.5 244.833,55.5 255.5,55.5C 255.5,60.8333 255.5,66.1667 255.5,71.5C 244.833,71.5 234.167,71.5 223.5,71.5C 223.5,66.1667 223.5,60.8333 223.5,55.5 Z"/></g>
<g><path style="opacity:0.887" fill="#000000" d="M 220.5,81.5 C 229.425,88.7561 237.759,96.7561 245.5,105.5C 241.833,109.833 237.833,113.833 233.5,117.5C 225.167,109.833 217.167,101.833 209.5,93.5C 213.189,89.4799 216.855,85.4799 220.5,81.5 Z"/></g>
<g><path style="opacity:0.937" fill="#000000" d="M 299.5,119.5 C 302.978,119.184 306.312,119.684 309.5,121C 314.833,137 325.5,147.667 341.5,153C 343.942,157.052 344.109,161.219 342,165.5C 326,170.833 315.333,181.5 310,197.5C 305.948,199.942 301.781,200.109 297.5,198C 292.167,182 281.5,171.333 265.5,166C 262.833,161.667 262.833,157.333 265.5,153C 281.333,147.833 291.833,137.333 297,121.5C 297.995,120.934 298.828,120.267 299.5,119.5 Z M 302.5,146.5 C 307.1,150.762 311.767,155.095 316.5,159.5C 311.833,163.5 307.5,167.833 303.5,172.5C 299.5,167.833 295.167,163.5 290.5,159.5C 295.252,155.753 299.252,151.419 302.5,146.5 Z"/></g>
<g><path style="opacity:0.998" fill="#000000" d="M 251.5,343.5 C 324.249,343.006 396.916,343.506 469.5,345C 470.126,345.75 470.626,346.584 471,347.5C 471.167,367.5 471.333,387.5 471.5,407.5C 471.656,428.253 471.156,448.92 470,469.5C 469.25,470.126 468.416,470.626 467.5,471C 431.5,471.167 395.5,471.333 359.5,471.5C 322.75,471.661 286.083,471.161 249.5,470C 248.874,469.25 248.374,468.416 248,467.5C 247.333,427.5 247.333,387.5 248,347.5C 248.69,345.65 249.856,344.316 251.5,343.5 Z M 263.5,359.5 C 263.5,391.5 263.5,423.5 263.5,455.5C 327.5,455.5 391.5,455.5 455.5,455.5C 455.5,423.5 455.5,391.5 455.5,359.5C 391.5,359.5 327.5,359.5 263.5,359.5 Z M 351.5,399.5 C 356.833,399.5 362.167,399.5 367.5,399.5C 367.5,404.833 367.5,410.167 367.5,415.5C 362.167,415.5 356.833,415.5 351.5,415.5C 351.5,410.167 351.5,404.833 351.5,399.5 Z"/></g>
<g><path style="opacity:1" fill="#000000" d="M 367.5,399.5 C 362.167,399.5 356.833,399.5 351.5,399.5C 351.5,394.167 351.5,388.833 351.5,383.5C 356.833,383.5 362.167,383.5 367.5,383.5C 367.5,388.833 367.5,394.167 367.5,399.5 Z"/></g>
<g><path style="opacity:1" fill="#000000" d="M 351.5,399.5 C 351.5,404.833 351.5,410.167 351.5,415.5C 346.167,415.5 340.833,415.5 335.5,415.5C 335.5,410.167 335.5,404.833 335.5,399.5C 340.833,399.5 346.167,399.5 351.5,399.5 Z"/></g>
<g><path style="opacity:1" fill="#000000" d="M 367.5,399.5 C 372.833,399.5 378.167,399.5 383.5,399.5C 383.5,404.833 383.5,410.167 383.5,415.5C 378.167,415.5 372.833,415.5 367.5,415.5C 367.5,410.167 367.5,404.833 367.5,399.5 Z"/></g>
<g><path style="opacity:1" fill="#000000" d="M 351.5,415.5 C 356.833,415.5 362.167,415.5 367.5,415.5C 367.5,420.833 367.5,426.167 367.5,431.5C 362.167,431.5 356.833,431.5 351.5,431.5C 351.5,426.167 351.5,420.833 351.5,415.5 Z"/></g>
</svg>
