<?xml version="1.0" encoding="UTF-8"?>
<!DOCTYPE svg PUBLIC "-//W3C//DTD SVG 1.1//EN" "http://www.w3.org/Graphics/SVG/1.1/DTD/svg11.dtd">
<svg xmlns="http://www.w3.org/2000/svg" version="1.1" width="512px" height="512px" style="shape-rendering:geometricPrecision; text-rendering:geometricPrecision; image-rendering:optimizeQuality; fill-rule:evenodd; clip-rule:evenodd" xmlns:xlink="http://www.w3.org/1999/xlink">
<g><path style="opacity:0.98" fill="#000000" d="M 222.5,31.5 C 244.503,31.3334 266.503,31.5 288.5,32C 289.667,33.1667 290.833,34.3333 292,35.5C 292.5,54.1637 292.667,72.8304 292.5,91.5C 267.833,91.5 243.167,91.5 218.5,91.5C 218.333,72.8304 218.5,54.1637 219,35.5C 220.376,34.2949 221.542,32.9616 222.5,31.5 Z M 254.5,55.5 C 264.436,57.0389 267.27,62.3723 263,71.5C 254.992,76.0789 249.825,73.9123 247.5,65C 247.764,60.2444 250.098,57.0778 254.5,55.5 Z"/></g>
<g><path style="opacity:0.954" fill="#000000" d="M 211.5,102.5 C 241.169,102.333 270.835,102.5 300.5,103C 309.404,104.904 315.571,110.071 319,118.5C 320.391,128.1 320.891,137.767 320.5,147.5C 277.487,132.871 234.487,132.871 191.5,147.5C 190.08,137.776 190.246,128.109 192,118.5C 195.713,109.608 202.213,104.274 211.5,102.5 Z"/></g>
<g><path style="opacity:0.984" fill="#000000" d="M 251.5,146.5 C 317.719,148.016 369.219,176.016 406,230.5C 436.836,284.034 440.503,339.367 417,396.5C 402.221,428.551 379.721,453.717 349.5,472C 343.883,475.317 337.883,477.65 331.5,479C 280.833,479.667 230.167,479.667 179.5,479C 173.117,477.65 167.117,475.317 161.5,472C 101.408,432.188 73.9084,376.021 79,303.5C 87.0508,245.164 116.217,200.997 166.5,171C 193.042,156.119 221.376,147.953 251.5,146.5 Z M 239.5,164.5 C 295.663,161.181 342.163,180.514 379,222.5C 399.355,247.556 411.188,276.222 414.5,308.5C 407.401,308.539 400.401,307.706 393.5,306C 376.833,301 360.167,296 343.5,291C 322.835,287.693 302.168,287.693 281.5,291C 265.578,294.794 249.911,299.46 234.5,305C 211.883,310.118 189.216,310.452 166.5,306C 152.26,301.047 137.927,296.38 123.5,292C 115.601,290.181 107.601,289.348 99.5,289.5C 112.049,235.775 143.716,197.941 194.5,176C 209.185,170.413 224.185,166.579 239.5,164.5 Z"/></g>
</svg>
