<?xml version="1.0" encoding="UTF-8"?>
<!DOCTYPE svg PUBLIC "-//W3C//DTD SVG 1.1//EN" "http://www.w3.org/Graphics/SVG/1.1/DTD/svg11.dtd">
<svg xmlns="http://www.w3.org/2000/svg" version="1.1" width="512px" height="512px" style="shape-rendering:geometricPrecision; text-rendering:geometricPrecision; image-rendering:optimizeQuality; fill-rule:evenodd; clip-rule:evenodd" xmlns:xlink="http://www.w3.org/1999/xlink">
<g><path style="opacity:0.965" fill="#000000" d="M 249.5,-0.5 C 253.5,-0.5 257.5,-0.5 261.5,-0.5C 338.026,31.4053 414.693,63.2386 491.5,95C 495.325,97.4881 497.492,100.988 498,105.5C 498.667,205.5 498.667,305.5 498,405.5C 495.895,412.939 491.061,417.772 483.5,420C 409.297,450.277 335.297,480.777 261.5,511.5C 257.5,511.5 253.5,511.5 249.5,511.5C 172.974,479.595 96.3074,447.761 19.5,416C 15.6749,413.512 13.5082,410.012 13,405.5C 12.3333,305.5 12.3333,205.5 13,105.5C 13.5082,100.988 15.6749,97.4881 19.5,95C 96.3074,63.2386 172.974,31.4053 249.5,-0.5 Z M 254.5,33.5 C 272.853,40.1771 290.853,47.6771 308.5,56C 249.037,82.476 189.37,108.143 129.5,133C 110.167,125 90.8333,117 71.5,109C 132.721,84.1004 193.721,58.9338 254.5,33.5 Z M 350.5,73.5 C 380.344,84.7507 410.011,96.5841 439.5,109C 378.276,134.446 316.942,159.613 255.5,184.5C 228.27,173.814 201.27,162.648 174.5,151C 233.374,125.391 292.041,99.5576 350.5,73.5 Z M 45.5,134.5 C 68.8076,144.151 92.1409,153.818 115.5,163.5C 116.333,192.494 116.833,221.494 117,250.5C 120.922,261.377 128.422,265.211 139.5,262C 144.428,260.073 147.594,256.573 149,251.5C 149.167,226.827 149.667,202.16 150.5,177.5C 179.5,189.5 208.5,201.5 237.5,213.5C 238.667,299.165 238.833,384.831 238,470.5C 174.224,444.073 110.391,417.74 46.5,391.5C 45.5,305.836 45.1667,220.169 45.5,134.5 Z M 464.5,134.5 C 465.832,220.001 465.832,305.668 464.5,391.5C 400.609,417.74 336.776,444.073 273,470.5C 272.167,384.831 272.333,299.165 273.5,213.5C 337.348,187.336 401.014,161.003 464.5,134.5 Z"/></g>
</svg>
