<?xml version="1.0" encoding="UTF-8"?>
<!DOCTYPE svg PUBLIC "-//W3C//DTD SVG 1.1//EN" "http://www.w3.org/Graphics/SVG/1.1/DTD/svg11.dtd">
<svg xmlns="http://www.w3.org/2000/svg" version="1.1" width="512px" height="512px" style="shape-rendering:geometricPrecision; text-rendering:geometricPrecision; image-rendering:optimizeQuality; fill-rule:evenodd; clip-rule:evenodd" xmlns:xlink="http://www.w3.org/1999/xlink">
<g><path style="opacity:0.973" fill="#000000" d="M 17.5,17.5 C 21.6049,17.2338 25.6049,17.7338 29.5,19C 46.6208,26.7269 63.6208,34.7269 80.5,43C 88.8737,48.7051 95.0404,56.2051 99,65.5C 117.842,144.374 136.175,223.374 154,302.5C 155.105,305.937 157.272,308.437 160.5,310C 247.915,310.995 335.248,310.661 422.5,309C 424.333,307.833 425.833,306.333 427,304.5C 441.089,244.721 454.922,184.888 468.5,125C 468.268,119.528 465.602,115.862 460.5,114C 359.5,113.667 258.5,113.333 157.5,113C 142.332,107.829 137.499,97.6624 143,82.5C 145.956,77.7685 150.123,74.6019 155.5,73C 259.167,72.3333 362.833,72.3333 466.5,73C 489.333,78.5 503.5,92.6667 509,115.5C 509.667,121.5 509.667,127.5 509,133.5C 495.158,193.869 481.158,254.203 467,314.5C 460.444,334.39 446.944,346.556 426.5,351C 336.167,351.667 245.833,351.667 155.5,351C 135.484,346.654 121.984,334.82 115,315.5C 96.9992,237.495 78.9992,159.495 61,81.5C 60.5348,80.0692 59.7014,78.9025 58.5,78C 42.2873,70.0601 25.954,62.3935 9.5,55C 1.6454,47.9939 -0.521267,39.4939 3,29.5C 6.06871,23.2349 10.902,19.2349 17.5,17.5 Z"/></g>
<g><path style="opacity:0.963" fill="#000000" d="M 194.5,390.5 C 223.563,389.083 242.73,402.083 252,429.5C 256.847,456.303 247.347,476.136 223.5,489C 195.789,498.651 173.622,491.484 157,467.5C 145.108,441.287 149.941,418.787 171.5,400C 178.747,395.536 186.414,392.37 194.5,390.5 Z M 197.5,423.5 C 212.445,423.279 219.945,430.612 220,445.5C 214.55,459.477 205.05,463.311 191.5,457C 179.364,443.24 181.364,432.073 197.5,423.5 Z"/></g>
<g><path style="opacity:0.964" fill="#000000" d="M 371.5,390.5 C 402.819,389.009 422.319,403.343 430,433.5C 432.323,463.146 419.489,482.646 391.5,492C 359.813,496.581 338.979,483.748 329,453.5C 325.176,420.186 339.342,399.186 371.5,390.5 Z M 375.5,423.5 C 392.615,424.064 399.448,432.73 396,449.5C 389.201,460.492 380.034,462.992 368.5,457C 357.833,447 357.833,437 368.5,427C 370.925,425.787 373.259,424.621 375.5,423.5 Z"/></g>
</svg>
