<?xml version="1.0" encoding="UTF-8"?>
<!DOCTYPE svg PUBLIC "-//W3C//DTD SVG 1.1//EN" "http://www.w3.org/Graphics/SVG/1.1/DTD/svg11.dtd">
<svg xmlns="http://www.w3.org/2000/svg" version="1.1" width="512px" height="512px" style="shape-rendering:geometricPrecision; text-rendering:geometricPrecision; image-rendering:optimizeQuality; fill-rule:evenodd; clip-rule:evenodd" xmlns:xlink="http://www.w3.org/1999/xlink">
<g><path style="opacity:0.94" fill="#000000" d="M 250.5,32.5 C 297.835,32.3333 345.168,32.5 392.5,33C 393.416,33.3742 394.25,33.8742 395,34.5C 422.333,69.1667 449.667,103.833 477,138.5C 481.526,162.229 476.526,183.562 462,202.5C 452.567,212.774 441.067,219.44 427.5,222.5C 427.334,229.508 427.5,236.508 428,243.5C 432.639,240.769 437.472,240.269 442.5,242C 462.412,252.87 481.912,264.37 501,276.5C 501.667,277.833 502.333,279.167 503,280.5C 503.167,292.5 503.333,304.5 503.5,316.5C 503.649,329.258 503.149,341.925 502,354.5C 499.795,357.04 497.295,359.207 494.5,361C 476.996,371.253 459.329,381.253 441.5,391C 436.564,392.123 432.064,391.29 428,388.5C 427.5,396.493 427.334,404.493 427.5,412.5C 452.425,410.279 466.425,421.446 469.5,446C 468.581,462.522 460.248,473.189 444.5,478C 377.167,478.167 309.833,478.333 242.5,478.5C 173.79,478.66 105.123,478.16 36.5,477C 16.4494,467.204 10.2828,451.704 18,430.5C 23.7599,420.75 32.2599,414.917 43.5,413C 50.1583,412.5 56.825,412.334 63.5,412.5C 63.8333,349.83 63.5,287.163 62.5,224.5C 33.3214,218.155 15.1547,200.488 8,171.5C 6.30999,160.468 6.30999,149.468 8,138.5C 36.8104,103.722 65.9771,69.2217 95.5,35C 147.277,33.8469 198.943,33.0135 250.5,32.5 Z M 239.5,49.5 C 260.833,49.5 282.167,49.5 303.5,49.5C 308.666,79.3395 319.333,107.006 335.5,132.5C 272.503,133.667 209.503,133.833 146.5,133C 162.759,107.731 173.426,80.2308 178.5,50.5C 199.007,50.8305 219.34,50.4972 239.5,49.5 Z M 320.5,49.5 C 341.836,49.3334 363.169,49.5 384.5,50C 406.69,77.3557 428.69,104.856 450.5,132.5C 419.505,133.667 388.505,133.833 357.5,133C 338.899,108.061 326.565,80.2275 320.5,49.5 Z M 104.5,50.5 C 123.512,50.1671 142.512,50.5004 161.5,51.5C 155.281,81.1915 143.281,108.191 125.5,132.5C 95.1722,133.667 64.8388,133.833 34.5,133C 58.0438,105.627 81.3771,78.1274 104.5,50.5 Z M 23.5,150.5 C 55.8333,150.5 88.1667,150.5 120.5,150.5C 121.675,184.478 105.508,203.478 72,207.5C 49.2804,206.142 33.9471,194.809 26,173.5C 24.5075,165.909 23.6742,158.242 23.5,150.5 Z M 137.5,150.5 C 169.5,150.5 201.5,150.5 233.5,150.5C 235.181,179.681 222.181,198.514 194.5,207C 166.975,209.777 148.475,198.277 139,172.5C 137.7,165.229 137.2,157.896 137.5,150.5 Z M 250.5,150.5 C 282.5,150.5 314.5,150.5 346.5,150.5C 348.682,180.008 335.682,198.841 307.5,207C 279.697,209.683 261.197,197.85 252,171.5C 250.712,164.563 250.212,157.563 250.5,150.5 Z M 363.5,150.5 C 395.833,150.5 428.167,150.5 460.5,150.5C 462.135,180.019 448.801,198.852 420.5,207C 392.153,209.633 373.653,197.466 365,170.5C 363.863,163.88 363.363,157.214 363.5,150.5 Z M 128.5,192.5 C 148.922,221.696 176.255,230.863 210.5,220C 224.112,214.387 234.612,205.221 242,192.5C 257.865,216.845 280.365,227.345 309.5,224C 329.419,220.296 344.586,209.796 355,192.5C 367.713,213.017 386.213,223.684 410.5,224.5C 410.666,234.172 410.5,243.839 410,253.5C 399.079,260.379 387.913,266.879 376.5,273C 374.291,274.873 372.458,277.04 371,279.5C 369.863,291.766 369.363,304.1 369.5,316.5C 369.363,328.9 369.863,341.234 371,353.5C 372.5,356.333 374.667,358.5 377.5,360C 388.415,366.04 399.248,372.207 410,378.5C 410.5,389.828 410.667,401.162 410.5,412.5C 385.5,412.5 360.5,412.5 335.5,412.5C 334.273,371.109 313.273,346.942 272.5,340C 252.167,339.333 231.833,339.333 211.5,340C 170.74,346.931 149.74,371.097 148.5,412.5C 125.833,412.5 103.167,412.5 80.5,412.5C 80.1667,349.83 80.5,287.163 81.5,224.5C 102.112,220.856 117.778,210.189 128.5,192.5 Z M 240.5,237.5 C 265.463,239.63 279.463,253.13 282.5,278C 279.661,302.172 266.161,315.672 242,318.5C 217.62,315.788 204.453,302.288 202.5,278C 204.375,254.294 217.041,240.794 240.5,237.5 Z M 435.5,258.5 C 449.607,266.056 463.607,273.889 477.5,282C 464.585,289.374 451.751,296.874 439,304.5C 424.912,296.873 410.746,289.373 396.5,282C 409.671,274.303 422.671,266.47 435.5,258.5 Z M 386.5,296.5 C 401.052,304.027 415.552,311.693 430,319.5C 430.183,336.25 429.517,352.916 428,369.5C 414.63,361.301 401.13,353.301 387.5,345.5C 386.501,329.18 386.167,312.847 386.5,296.5 Z M 485.5,297.5 C 486.831,305.138 487.498,313.138 487.5,321.5C 487.167,329.5 486.833,337.5 486.5,345.5C 472.974,353.59 459.307,361.09 445.5,368C 446.066,351.526 447.066,335.026 448.5,318.5C 461.058,311.726 473.392,304.726 485.5,297.5 Z M 212.5,356.5 C 232.169,356.333 251.836,356.5 271.5,357C 294.753,360.924 309.92,374.09 317,396.5C 318.095,401.78 318.595,407.113 318.5,412.5C 311.833,412.5 305.167,412.5 298.5,412.5C 299.032,405.88 296.032,402.213 289.5,401.5C 283.201,402.408 280.534,406.075 281.5,412.5C 255.167,412.5 228.833,412.5 202.5,412.5C 202.83,403 198.497,399.833 189.5,403C 186.712,405.523 185.379,408.69 185.5,412.5C 178.833,412.5 172.167,412.5 165.5,412.5C 166.756,381.588 182.423,362.921 212.5,356.5 Z M 44.5,429.5 C 176.167,429.333 307.834,429.5 439.5,430C 451.358,434.551 454.858,442.718 450,454.5C 447.736,457.433 444.902,459.6 441.5,461C 308.5,461.667 175.5,461.667 42.5,461C 30.6872,454.558 28.5206,445.724 36,434.5C 38.6822,432.415 41.5155,430.748 44.5,429.5 Z"/></g>
<g><path style="opacity:0.934" fill="#000000" d="M 241.5,220.5 C 266.728,221.568 284.561,233.568 295,256.5C 304.143,284.735 296.977,307.902 273.5,326C 250.671,338.656 228.337,337.656 206.5,323C 187.987,306.792 181.487,286.625 187,262.5C 196.088,236.557 214.255,222.557 241.5,220.5 Z M 240.5,237.5 C 217.041,240.794 204.375,254.294 202.5,278C 204.453,302.288 217.62,315.788 242,318.5C 266.161,315.672 279.661,302.172 282.5,278C 279.463,253.13 265.463,239.63 240.5,237.5 Z"/></g>
</svg>
